<svg width="211" height="56" fill="none" xmlns="http://www.w3.org/2000/svg"><g clip-path="url(#clip0)"><path d="M18.216 42.837s14.68 22.329 39.957 8.823c0 0 21.302 8.713 26.821-6.862 0 0 4.857-15.031-11.7-17.537 0 0 .994-10.892-12.252-13.615 0 0-1.434-8.604-15.784-11.11 0 0-16.777-1.524-21.523 9.368 0 0-15.784-5.773-22.517 7.842.11-.109-8.168 19.715 16.998 23.091z" fill="#00ADEF"/><path d="M69.873 14.3s4.967 9.258 15.673 5.337c0 0 8.168 4.357 11.038-1.307 0 0 2.65-4.793-3.973-7.298 0 0 .882-4.139-4.305-5.773 0 0-.22-3.376-5.85-5.01 0 0-6.623-1.416-8.94 2.505 0 0-5.299-4.03-9.383 1.852-.11 0-4.194 7.189 5.74 9.694z" fill="#00ADEF"/><path d="M61.815 44.689L48.459 7.002s-.33-2.07-3.863-2.07c-2.87 0-3.532 2.07-3.532 2.07l-17.77 29.953s-1.325 2.614-.221 4.684l2.98 4.248c1.766 3.594 5.629 2.396 5.629 2.396l18.875-5.99v-.654h-20.2l13.577-24.725 10.265 29.953s.883 3.159 4.746 2.287c3.863-.87 2.87-4.465 2.87-4.465z" fill="#F8F8F8"/><path d="M73.294 31.183c3.422 0 6.513 1.09 8.83 2.941-2.097-2.94-5.518-4.793-9.382-4.793-4.856 0-9.05 3.05-10.706 7.407 2.318-3.267 6.512-5.555 11.258-5.555zM18.436 14.518c2.54 0 4.968.435 7.175 1.307a15.218 15.218 0 00-9.051-2.941c-7.064 0-12.914 4.792-14.57 11.219 2.429-5.555 8.83-9.585 16.447-9.585zM81.131 2.1c1.325 0 2.539.219 3.643.654a7.624 7.624 0 00-4.636-1.525c-3.643 0-6.623 2.506-7.506 5.773 1.325-2.832 4.636-4.901 8.5-4.901zm4.084 14.052c-.331-.654-.441-1.416-.552-2.07-.22.872-.11 1.852.331 2.723.883 1.852 2.87 2.832 4.857 2.506-1.876 0-3.753-1.199-4.636-3.16z" fill="#fff"/><path d="M102.516 27.795c-.302 0-.604.099-.805.198-.201.199-.503.497-.704.894l-4.931 8.938c-.101.099-.101.198 0 .297 0 .1.1.1.301.1h2.013c.201 0 .302-.1.302-.199l1.006-1.887h7.045l1.106 1.887c.102.1.202.199.303.199h1.912c.1 0 .201 0 .201-.1v-.297l-5.032-8.938c-.302-.397-.503-.794-.805-.894-.302-.198-.604-.198-1.006-.198h-.906zm.302 2.184c0-.099.101-.099.201-.099h.101c.1 0 .1 0 .201.1l2.415 4.369h-5.233l2.315-4.37zm6.239.099c-.1 0-.201 0-.201.1v.298l4.126 7.15c.101.298.302.397.503.496.201.1.403.1.806.1h1.207c.302 0 .604 0 .805-.1.201-.1.302-.298.503-.496l4.126-7.15c.101-.1.101-.199 0-.298 0-.1-.1-.1-.201-.1h-1.711c-.1 0-.201 0-.201.1-.1 0-.1.099-.1.099l-3.624 6.157c0 .1-.1.1-.201.1h-.1c-.101 0-.101 0-.202-.1l-3.522-6.157c-.1-.1-.201-.199-.403-.199h-1.61zm13.284 0c-.201 0-.302.1-.302.298v7.548c0 .198.101.298.302.298h1.51c.201 0 .302-.1.302-.298v-7.548c0-.198-.101-.298-.302-.298h-1.51zm0-3.078c-.201 0-.302.1-.302.298v1.39c0 .199.101.298.302.298h1.51c.201 0 .302-.1.302-.298v-1.39c0-.199-.101-.298-.302-.298h-1.51zm5.937 3.078c-.402 0-.805.1-1.106.1-.303.099-.504.198-.705.397-.201.198-.302.397-.402.695-.202.198-.202.496-.202.794v.696c0 .695.202 1.191.503 1.49.403.297 1.007.496 1.812.496h5.031c.303 0 .504.099.705.198.101.1.201.298.201.497v.397c0 .298-.1.397-.201.596-.101.1-.302.199-.705.199h-7.144c-.202 0-.302.099-.302.297v1.192c0 .199.1.298.302.298h7.849c.403 0 .805 0 1.107-.1.302-.099.503-.198.704-.397.202-.198.302-.397.403-.695.1-.298.1-.596.1-.893v-.795a2.42 2.42 0 00-.503-1.49c-.402-.397-.905-.496-1.811-.496h-5.132c-.302 0-.504-.1-.705-.199a.752.752 0 01-.201-.496v-.397c0-.199.1-.398.201-.497.101-.1.302-.198.705-.198h6.843c.201 0 .302-.1.302-.299v-1.191c0-.199-.101-.298-.302-.298h-7.347v.1zm9.862-2.978c-.201 0-.301.099-.301.297v10.527c0 .198.1.298.301.298h1.511c.201 0 .301-.1.301-.298v-5.959h5.535c.302 0 .604 0 .805.1.202.099.403.099.503.297.101.1.202.298.202.497s.1.497.1.794v4.37c0 .199.101.298.302.298h1.51c.201 0 .301-.1.301-.298v-4.866c0-.497-.1-.993-.201-1.39-.1-.398-.302-.695-.603-.894-.302-.199-.604-.397-1.108-.497-.503-.099-1.006-.198-1.71-.198h-5.636v-2.681c0-.2-.1-.298-.301-.298h-1.511v-.1zm13.184 0c-.201 0-.302.099-.302.297v10.527c0 .198.101.298.302.298h1.509c.202 0 .302-.1.302-.298v-2.98h2.919c.402 0 .704.1.905.1.201.1.403.198.604.496l1.812 2.483.201.199h2.012c.101 0 .202 0 .202-.1v-.298l-2.114-2.88c-.301-.397-.704-.695-1.107-.993.303-.198.604-.496.906-.993l1.912-2.68c.101-.1.101-.2.101-.299 0-.1-.101-.1-.201-.1h-1.711c-.101 0-.201 0-.302.1-.101 0-.101.1-.201.199l-1.711 2.383-.302.298c-.101.1-.201.1-.302.199-.101 0-.201.099-.402.099h-3.321v-5.86c0-.198-.101-.297-.302-.297h-1.409v.1zm11.774 2.978c-.201 0-.302.1-.302.298v1.291c0 .199.101.298.302.298h6.34c.302 0 .604 0 .805.1.202.099.403.099.503.198.101.1.202.199.302.397.101.199.101.398.101.596v.199h-6.139c-.402 0-.805 0-1.107.1-.301.098-.503.198-.704.396-.201.199-.302.398-.403.596-.1.199-.1.497-.1.795v.695c0 .397 0 .695.1.993.101.298.202.496.403.695.201.199.403.298.704.397.302.1.705.1 1.107.1h7.648c.101 0 .302-.1.302-.2.101-.098.101-.198.201-.396 0-.199.102-.398.102-.596v-3.972c0-.497-.102-.993-.202-1.39-.101-.398-.302-.696-.604-.895-.302-.198-.603-.397-1.107-.496-.503-.1-1.006-.199-1.711-.199h-6.541zm2.416 6.555c-.303 0-.504-.1-.705-.199-.101-.1-.201-.298-.201-.596v-.298c0-.198.1-.397.201-.496.101-.1.302-.199.705-.199h5.534v1.291c0 .199 0 .298-.1.397-.101.1-.202.1-.302.1h-5.132zm12.78-6.554c-.705 0-1.208.099-1.711.198-.503.1-.805.298-1.107.497-.302.198-.503.596-.603.893-.101.398-.202.894-.202 1.39v4.867c0 .198.101.298.302.298h1.509c.202 0 .303-.1.303-.298v-4.469c0-.298 0-.596.1-.794.101-.199.101-.398.302-.497.101-.1.302-.199.503-.298.201-.1.504-.1.805-.1h4.026c.201 0 .301-.098.301-.297v-1.291c0-.199-.1-.298-.301-.298h-4.227v.199zm21.033-.001c-.705 0-1.208.1-1.711.199-.504.1-.805.298-1.107.496-.302.2-.503.596-.604.894-.1.398-.202.894-.202 1.39v4.867c0 .198.102.297.303.297h1.509c.202 0 .302-.099.302-.297v-4.37c0-.298 0-.596.101-.794.1-.199.1-.398.302-.497.1-.1.301-.198.503-.298.201-.1.503-.1.805-.1h2.515v5.96c0 .198.102.297.303.297h1.509c.202 0 .302-.1.302-.298v-5.958h2.616c.303 0 .604 0 .806.1.201.099.301.099.503.297.1.1.201.298.201.497 0 .198.1.496.1.794v4.37c0 .198.102.297.303.297h1.509c.202 0 .302-.099.302-.297v-4.866c0-.497-.1-.993-.201-1.39-.101-.398-.302-.696-.604-.895a3.74 3.74 0 00-1.107-.496 7.32 7.32 0 00-1.711-.199h-7.547zm-15.297 0c-.201 0-.302.1-.302.298v1.291c0 .199.101.298.302.298h6.34c.302 0 .604 0 .805.1.202.099.403.099.503.198.101.1.202.199.302.397.101.199.101.398.101.596v.199h-6.138c-.403 0-.806 0-1.108.1-.301.098-.503.198-.704.396-.201.199-.302.398-.403.596-.1.199-.1.497-.1.795v.695c0 .397 0 .695.1.993.101.298.202.496.403.695.201.199.403.298.704.397.302.1.705.1 1.108.1h7.647c.101 0 .302-.1.302-.2.101-.098.101-.198.201-.396 0-.199.102-.398.102-.596v-3.972c0-.497-.102-.993-.202-1.39-.101-.398-.302-.696-.604-.895-.302-.198-.603-.397-1.106-.496-.504-.1-1.007-.199-1.712-.199h-6.541zm2.416 6.555c-.302 0-.503-.1-.705-.199-.101-.1-.201-.298-.201-.596v-.298c0-.198.1-.397.201-.496.1-.1.302-.199.705-.199h5.534v1.291c0 .199 0 .298-.1.397-.101.1-.202.1-.302.1h-5.132z" fill="#1C63B7"/></g><defs><clipPath id="clip0"><path fill="#fff" d="M0 0h210.545v56H0z"/></clipPath></defs></svg>