<svg width="265" height="42" fill="none" xmlns="http://www.w3.org/2000/svg"><path d="M94.672 13.502c-.474 0-.949.158-1.265.316-.317.317-.791.791-1.108 1.424l-7.752 14.239c-.158.158-.158.316 0 .474 0 .159.158.159.475.159h3.164c.316 0 .475-.159.475-.317l1.582-3.006h11.074l1.74 3.006c.159.158.317.317.475.317h3.006c.158 0 .316 0 .316-.159v-.474l-7.91-14.239c-.475-.633-.791-1.265-1.266-1.424-.474-.316-.949-.316-1.582-.316h-1.424zm.475 3.48c0-.158.158-.158.316-.158h.159c.158 0 .158 0 .316.159l3.797 6.96h-8.227l3.639-6.96zm9.809.158c-.158 0-.317 0-.317.159v.474l6.487 11.391c.158.475.474.633.791.791.316.158.633.158 1.266.158h1.898c.475 0 .949 0 1.266-.158.316-.158.474-.474.791-.79l6.486-11.392c.158-.158.158-.316 0-.474 0-.159-.158-.159-.316-.159h-2.69c-.158 0-.316 0-.316.159-.158 0-.158.158-.158.158l-5.696 9.809c0 .158-.158.158-.316.158h-.158c-.159 0-.159 0-.317-.158l-5.537-9.81c-.158-.157-.316-.316-.633-.316h-2.531zm20.883 0c-.316 0-.475.159-.475.475V29.64c0 .316.159.474.475.474h2.373c.316 0 .475-.158.475-.474V17.615c0-.316-.159-.474-.475-.474h-2.373zm0-4.904c-.316 0-.475.158-.475.475v2.215c0 .316.159.474.475.474h2.373c.316 0 .475-.158.475-.474V12.71c0-.317-.159-.475-.475-.475h-2.373zm9.334 4.904c-.633 0-1.266.158-1.74.158-.475.159-.791.317-1.108.633-.316.317-.474.633-.632 1.108-.317.316-.317.79-.317 1.265v1.108c0 1.107.317 1.898.791 2.373.633.474 1.582.79 2.848.79h7.91c.475 0 .791.16 1.108.317.158.159.316.475.316.791v.633c0 .475-.158.633-.316.95-.159.158-.475.316-1.108.316h-11.232c-.317 0-.475.158-.475.474v1.899c0 .316.158.475.475.475h12.34c.633 0 1.265 0 1.74-.159.475-.158.791-.316 1.107-.633.317-.316.475-.632.633-1.107.158-.475.158-.95.158-1.424v-1.265c0-.95-.316-1.74-.791-2.374-.632-.632-1.423-.79-2.847-.79h-8.069c-.474 0-.791-.159-1.107-.317a1.205 1.205 0 01-.317-.791v-.633a1.2 1.2 0 01.317-.79c.158-.16.474-.317 1.107-.317h10.758c.317 0 .475-.159.475-.475v-1.898c0-.317-.158-.475-.475-.475h-11.549v.158zm15.504-4.746c-.316 0-.474.159-.474.475v16.77c0 .316.158.474.474.474h2.374c.316 0 .474-.158.474-.474v-9.493h8.702c.474 0 .949 0 1.265.159.317.158.633.158.791.474.158.158.317.475.317.791 0 .317.158.791.158 1.266v6.961c0 .316.158.475.474.475h2.374c.316 0 .474-.159.474-.475v-7.752c0-.791-.158-1.582-.316-2.215-.158-.633-.475-1.107-.949-1.424-.475-.316-.95-.633-1.741-.79-.791-.16-1.582-.317-2.689-.317h-8.86v-4.272c0-.316-.158-.474-.474-.474h-2.374v-.159zm20.725 0c-.316 0-.474.159-.474.475v16.77c0 .316.158.474.474.474h2.373c.317 0 .475-.158.475-.474v-4.746h4.588c.633 0 1.107.158 1.424.158.316.158.633.316.949.79l2.848 3.956.316.316h3.164c.159 0 .317 0 .317-.158v-.474l-3.323-4.588c-.474-.633-1.107-1.108-1.74-1.582.475-.317.949-.791 1.424-1.582l3.006-4.272c.158-.158.158-.317.158-.475 0-.158-.158-.158-.316-.158h-2.69c-.158 0-.316 0-.474.158-.159 0-.159.159-.317.317l-2.689 3.797-.475.474c-.158.159-.316.159-.475.317-.158 0-.316.158-.632.158h-5.221V12.71c0-.317-.158-.475-.475-.475h-2.215v.158zm18.511 4.746c-.317 0-.475.159-.475.475v2.057c0 .316.158.474.475.474h9.967c.474 0 .949 0 1.265.159.317.158.633.158.791.316.159.158.317.316.475.633.158.316.158.633.158.949v.316h-9.65c-.633 0-1.266 0-1.741.159-.474.158-.791.316-1.107.632-.316.317-.475.633-.633.95-.158.316-.158.79-.158 1.265v1.108c0 .633 0 1.107.158 1.582.158.474.317.79.633 1.107.316.317.633.475 1.107.633.475.158 1.108.158 1.741.158h12.023c.159 0 .475-.158.475-.316.158-.158.158-.317.316-.633 0-.316.159-.633.159-.95v-6.327c0-.791-.159-1.582-.317-2.215-.158-.633-.474-1.108-.949-1.424-.475-.317-.949-.633-1.74-.791-.791-.158-1.582-.317-2.69-.317h-10.283zm3.797 10.442c-.475 0-.791-.158-1.108-.316-.158-.159-.316-.475-.316-.95v-.474c0-.317.158-.633.316-.791.159-.159.475-.317 1.108-.317h8.701v2.057c0 .316 0 .475-.158.633-.158.158-.317.158-.475.158h-8.068zm20.092-10.442c-1.108 0-1.899.159-2.69.317-.791.158-1.265.475-1.74.791-.475.316-.791.95-.949 1.424-.158.633-.317 1.424-.317 2.215v7.752c0 .316.159.475.475.475h2.373c.317 0 .475-.159.475-.475v-7.12c0-.474 0-.949.158-1.265.158-.316.158-.633.475-.791.158-.158.474-.316.791-.475.316-.158.791-.158 1.265-.158h6.329c.316 0 .474-.158.474-.474v-2.057c0-.317-.158-.475-.474-.475h-6.645v.317zm33.065 0c-1.108 0-1.899.159-2.69.317-.791.158-1.265.474-1.74.79-.475.317-.791.95-.949 1.425-.158.633-.317 1.424-.317 2.215v7.752c0 .316.159.474.475.474h2.373c.317 0 .475-.158.475-.474v-6.961c0-.475 0-.95.158-1.266.158-.316.158-.633.475-.791.158-.158.474-.316.791-.475.316-.158.791-.158 1.265-.158h3.955v9.492c0 .317.159.475.475.475h2.373c.317 0 .475-.158.475-.474v-9.493h4.113c.475 0 .949 0 1.266.158.316.159.474.159.791.475.158.158.316.475.316.791 0 .316.158.791.158 1.266v6.96c0 .317.159.475.475.475h2.373c.317 0 .475-.158.475-.474v-7.752c0-.791-.158-1.582-.317-2.215-.158-.633-.474-1.108-.949-1.424a5.838 5.838 0 00-1.74-.791 11.362 11.362 0 00-2.69-.317h-11.865zm-24.047 0c-.317 0-.475.159-.475.475v2.057c0 .316.158.474.475.474h9.967c.474 0 .949 0 1.265.159.317.158.633.158.791.316.159.158.317.316.475.633.158.316.158.633.158.949v.316h-9.65c-.633 0-1.266 0-1.741.159-.474.158-.791.316-1.107.632-.316.317-.475.633-.633.95-.158.316-.158.79-.158 1.265v1.108c0 .633 0 1.107.158 1.582.158.474.317.79.633 1.107.316.317.633.475 1.107.633.475.158 1.108.158 1.741.158h12.023c.159 0 .475-.158.475-.316.158-.158.158-.317.316-.633 0-.316.159-.633.159-.95v-6.327c0-.791-.159-1.582-.317-2.215-.158-.633-.474-1.108-.949-1.424-.475-.317-.949-.633-1.74-.791-.791-.158-1.582-.317-2.69-.317H222.82zm3.797 10.442c-.475 0-.791-.158-1.108-.316-.158-.159-.316-.475-.316-.95v-.474c0-.317.158-.633.316-.791.158-.159.475-.317 1.108-.317h8.701v2.057c0 .316 0 .475-.158.633-.158.158-.317.158-.475.158h-8.068z" fill="#1C63B7"/><path d="M13.481 32.128s10.865 16.746 29.572 6.617c0 0 15.767 6.535 19.851-5.147 0 0 3.594-11.273-8.66-13.152 0 0 .736-8.169-9.067-10.211 0 0-1.062-6.454-11.681-8.333 0 0-12.417-1.143-15.93 7.026 0 0-11.682-4.33-16.665 5.881.082-.081-6.045 14.786 12.58 17.319z" fill="#00ADEF"/><path d="M51.712 10.725s3.676 6.944 11.6 4.003c0 0 6.046 3.267 8.17-.98 0 0 1.96-3.595-2.941-5.474 0 0 .653-3.104-3.186-4.33 0 0-.164-2.532-4.33-3.757 0 0-4.901-1.062-6.617 1.879 0 0-3.92-3.023-6.943 1.388-.082 0-3.105 5.392 4.247 7.27z" fill="#00ADEF"/><path d="M45.75 33.516L35.864 5.252s-.245-1.553-2.86-1.553c-2.124 0-2.614 1.553-2.614 1.553L17.24 27.716s-.98 1.961-.163 3.513l2.206 3.186c1.306 2.696 4.166 1.797 4.166 1.797l13.969-4.493v-.49h-14.95l10.048-18.544 7.597 22.465s.654 2.37 3.513 1.716c2.86-.654 2.124-3.35 2.124-3.35z" fill="#F8F8F8"/><path d="M54.245 23.387c2.532 0 4.82.817 6.535 2.206a8.44 8.44 0 00-6.944-3.595c-3.594 0-6.698 2.288-7.924 5.555 1.716-2.45 4.82-4.166 8.333-4.166zm-40.6-12.499c1.879 0 3.676.327 5.31.98a11.163 11.163 0 00-6.699-2.205c-5.228 0-9.558 3.594-10.783 8.414 1.797-4.166 6.535-7.189 12.172-7.189zm46.4-9.312c.98 0 1.879.163 2.696.49A5.593 5.593 0 0059.31.922c-2.696 0-4.902 1.879-5.555 4.33.98-2.124 3.43-3.676 6.29-3.676zm3.022 10.538c-.245-.49-.326-1.062-.408-1.552a2.988 2.988 0 00.245 2.042 3.345 3.345 0 003.594 1.879c-1.388 0-2.777-.899-3.43-2.37z" fill="#fff"/></svg>