<svg width="24" height="24" fill="none" xmlns="http://www.w3.org/2000/svg"><path d="M11.622 23.022C5.312 23.022.18 17.896.18 11.594.179 5.292 5.312.166 11.622.165c6.31 0 11.444 5.127 11.444 11.429 0 6.302-5.133 11.428-11.444 11.428z" fill="#666"/><path d="M11.006 8.399a62.093 62.093 0 00-3.537-5.507 9.692 9.692 0 00-5.295 6.671h.094c.891 0 4.582-.071 8.738-1.164zm6.985-4.047a9.632 9.632 0 00-8.55-2.15 51.957 51.957 0 013.557 5.578c3.263-1.234 4.724-3.06 4.993-3.428zm-3.573 6.328c.066.155.13.309.192.462a18.143 18.143 0 012.204-.128c2.199 0 4.04.344 4.473.432a9.6 9.6 0 00-2.136-5.886c-.337.437-1.97 2.372-5.354 3.765.218.446.426.9.62 1.355zm-2.133.96c.106-.035.214-.066.321-.098A32.172 32.172 0 0011.867 10c-4.29 1.274-8.455 1.373-9.654 1.373-.111 0-.196 0-.254-.002-.002.08-.004.16-.004.239a9.61 9.61 0 002.434 6.397c.408-.675 3.064-4.806 7.896-6.367zm2.96 1.142c1.202 3.316 1.723 6.036 1.852 6.78a9.666 9.666 0 004.062-6.372c-.367-.112-1.948-.554-3.968-.554-.615 0-1.272.042-1.946.146zm-1.943.478c-5.296 1.843-7.3 5.452-7.576 5.994a9.63 9.63 0 005.897 2.01 9.624 9.624 0 003.734-.75c-.155-.9-.717-3.8-2.044-7.258a.658.658 0 00-.011.004z" fill="#150D1C"/></svg>