<svg width="24" height="24" fill="none" xmlns="http://www.w3.org/2000/svg"><path d="M19.994 23.022H3.004C1.39 23.022.07 21.828.07 20.09V3.099C.07 1.359 1.39.165 3.004.165h16.99c1.613 0 2.933 1.195 2.933 2.934v16.99c0 1.739-1.32 2.933-2.933 2.933z" fill="#666"/><path d="M11.52 15.992c2.535 0 4.59-1.992 4.59-4.448 0-2.457-2.055-4.448-4.59-4.448-2.535 0-4.59 1.991-4.59 4.448 0 2.457 2.055 4.448 4.59 4.448z" fill="#150D1C"/><path d="M18.625 11.792c0 3.802-3.18 6.883-7.104 6.883s-7.105-3.081-7.105-6.883c0-.681.103-1.34.293-1.961h-2.1v9.655c0 .5.41.909.91.909h15.916c.5 0 .91-.409.91-.909V9.831h-2.013a6.7 6.7 0 01.293 1.961zm-1.904-4.566h2.584c.566 0 1.028-.463 1.028-1.029V3.734c0-.567-.462-1.03-1.028-1.03H16.72c-.566 0-1.029.463-1.029 1.03v2.463c0 .566.463 1.029 1.03 1.029z" fill="#150D1C"/></svg>