<svg width="31" height="24" fill="none" xmlns="http://www.w3.org/2000/svg"><path fill-rule="evenodd" clip-rule="evenodd" d="M29.43 22.92v-.481l-2.235-2.194a.667.667 0 01-.254-.64V3.497a.667.667 0 01.254-.64L29.482.662v-.48h-7.915l-5.642 14.075L9.505.183H1.201v.48l2.676 3.222c.262.236.397.583.36.935v12.66c.078.456-.065.922-.386 1.256l-3.01 3.65v.48h8.531v-.48l-3.01-3.65a1.509 1.509 0 01-.412-1.256V6.53l7.487 16.336h.87l6.43-16.335v13.021c0 .348 0 .413-.228.64l-2.311 2.247v.48h11.231z" fill="#666"/></svg>