<svg width="24" height="24" fill="none" xmlns="http://www.w3.org/2000/svg"><path fill-rule="evenodd" clip-rule="evenodd" d="M18.19 4.75H15a.75.75 0 010-1.5h5a.75.75 0 01.75.75v5a.75.75 0 01-1.5 0V5.81l-8.72 8.72a.75.75 0 11-1.06-1.06l8.72-8.72zM11 5a.727.727 0 110 1.455c-1.814 0-3.165.005-4.117.112-.95.107-1.442.307-1.727.592-.285.285-.484.777-.59 1.727-.107.951-.111 2.302-.111 4.114 0 1.812.006 3.162.115 4.112.108.95.31 1.443.596 1.729.287.286.78.485 1.729.592.95.108 2.298.113 4.105.113 1.807 0 3.155-.006 4.105-.114.95-.108 1.441-.308 1.729-.595.287-.288.488-.78.596-1.73.11-.949.115-2.298.115-4.107A.727.727 0 1119 13c0 1.81 0 3.18-.125 4.273-.125 1.092-.386 1.966-1.013 2.592-.627.626-1.502.887-2.594 1.011-1.091.125-2.46.124-4.268.124-1.808 0-3.177.003-4.268-.12-1.092-.124-1.965-.384-2.593-1.01-.627-.625-.89-1.499-1.015-2.592C2.998 16.186 3 14.814 3 13c0-1.813-.002-3.185.12-4.277.123-1.092.38-1.966 1.006-2.592.626-.627 1.501-.887 2.594-1.01C7.813 4.997 9.185 5 11 5z" fill="#fff"/></svg>