<?xml version="1.0" encoding="utf-8"?><svg width="265" height="42" viewBox="0 0 265 42" fill="none" xmlns="http://www.w3.org/2000/svg">
<path d="M94.6724 13.502C94.1978 13.502 93.7232 13.6602 93.4067 13.8184C93.0903 14.1348 92.6157 14.6094 92.2993 15.2422L84.5472 29.4808C84.389 29.639 84.389 29.7972 84.5472 29.9554C84.5472 30.1136 84.7054 30.1136 85.0218 30.1136H88.1859C88.5023 30.1136 88.6606 29.9554 88.6606 29.7972L90.2426 26.7913H101.317L103.057 29.7972C103.216 29.9554 103.374 30.1136 103.532 30.1136H106.538C106.696 30.1136 106.854 30.1136 106.854 29.9554C106.854 29.7972 106.854 29.7972 106.854 29.4808L98.944 15.2422C98.4694 14.6094 98.1529 13.9766 97.6783 13.8184C97.2037 13.5019 96.7291 13.502 96.0963 13.502H94.6724ZM95.147 16.9825C95.147 16.8243 95.3052 16.8243 95.4634 16.8243H95.6216C95.7798 16.8243 95.7798 16.8243 95.9381 16.9825L99.735 23.9436H91.5083L95.147 16.9825Z" fill="#1C63B7"/>
<path d="M104.956 17.1404C104.798 17.1404 104.639 17.1404 104.639 17.2986C104.639 17.4568 104.639 17.615 104.639 17.7732L111.126 29.1641C111.284 29.6387 111.6 29.7969 111.917 29.9551C112.233 30.1133 112.55 30.1133 113.183 30.1133H115.081C115.556 30.1133 116.03 30.1133 116.347 29.9551C116.663 29.7969 116.821 29.4805 117.138 29.1641L123.624 17.7732C123.782 17.615 123.782 17.4568 123.624 17.2986C123.624 17.1404 123.466 17.1404 123.308 17.1404H120.618C120.46 17.1404 120.302 17.1404 120.302 17.2986C120.144 17.2986 120.144 17.4568 120.144 17.4568L114.448 27.2656C114.448 27.4238 114.29 27.4238 114.132 27.4238H113.974C113.815 27.4238 113.815 27.4238 113.657 27.2656L108.12 17.4568C107.962 17.2986 107.804 17.1404 107.487 17.1404H104.956Z" fill="#1C63B7"/>
<path d="M125.839 17.1405C125.523 17.1405 125.364 17.2987 125.364 17.6151V29.6388C125.364 29.9552 125.523 30.1134 125.839 30.1134H128.212C128.528 30.1134 128.687 29.9552 128.687 29.6388V17.6151C128.687 17.2987 128.528 17.1405 128.212 17.1405H125.839ZM125.839 12.2361C125.523 12.2361 125.364 12.3943 125.364 12.7107V14.9256C125.364 15.242 125.523 15.4002 125.839 15.4002H128.212C128.528 15.4002 128.687 15.242 128.687 14.9256V12.7107C128.687 12.3943 128.528 12.2361 128.212 12.2361H125.839Z" fill="#1C63B7"/>
<path d="M135.173 17.1401C134.54 17.1401 133.907 17.2983 133.433 17.2983C132.958 17.4565 132.642 17.6148 132.325 17.9312C132.009 18.2476 131.851 18.564 131.693 19.0386C131.376 19.355 131.376 19.8296 131.376 20.3043V21.4117C131.376 22.5192 131.693 23.3102 132.167 23.7848C132.8 24.2594 133.749 24.5758 135.015 24.5758H142.925C143.4 24.5758 143.716 24.7341 144.033 24.8923C144.191 25.0505 144.349 25.3669 144.349 25.6833V26.3161C144.349 26.7907 144.191 26.9489 144.033 27.2654C143.874 27.4236 143.558 27.5818 142.925 27.5818H131.693C131.376 27.5818 131.218 27.74 131.218 28.0564V29.9549C131.218 30.2713 131.376 30.4295 131.693 30.4295H144.033C144.666 30.4295 145.298 30.4295 145.773 30.2713C146.248 30.1131 146.564 29.9549 146.88 29.6385C147.197 29.322 147.355 29.0056 147.513 28.531C147.671 28.0564 147.671 27.5818 147.671 27.1072V25.8415C147.671 24.8923 147.355 24.1012 146.88 23.4684C146.248 22.8356 145.457 22.6774 144.033 22.6774H135.964C135.49 22.6774 135.173 22.5192 134.857 22.361C134.698 22.2027 134.54 21.8863 134.54 21.5699V20.9371C134.54 20.6207 134.698 20.3043 134.857 20.1461C135.015 19.9879 135.331 19.8297 135.964 19.8297H146.722C147.039 19.8297 147.197 19.6714 147.197 19.355V17.4566C147.197 17.1401 147.039 16.9819 146.722 16.9819H135.173V17.1401Z" fill="#1C63B7"/>
<path d="M150.677 12.3943C150.361 12.3943 150.203 12.5525 150.203 12.8689V29.6388C150.203 29.9552 150.361 30.1134 150.677 30.1134H153.051C153.367 30.1134 153.525 29.9552 153.525 29.6388V20.1464H162.227C162.701 20.1464 163.176 20.1464 163.492 20.3046C163.809 20.4628 164.125 20.4628 164.283 20.7792C164.441 20.9374 164.6 21.2539 164.6 21.5703C164.6 21.8867 164.758 22.3613 164.758 22.8359V29.797C164.758 30.1134 164.916 30.2716 165.232 30.2716H167.606C167.922 30.2716 168.08 30.1134 168.08 29.797V22.0449C168.08 21.2538 167.922 20.4628 167.764 19.83C167.606 19.1972 167.289 18.7226 166.815 18.4061C166.34 18.0897 165.865 17.7733 165.074 17.6151C164.283 17.4569 163.492 17.2987 162.385 17.2987H153.525V13.0271C153.525 12.7107 153.367 12.5525 153.051 12.5525H150.677V12.3943Z" fill="#1C63B7"/>
<path d="M171.402 12.3943C171.086 12.3943 170.928 12.5525 170.928 12.8689V29.6388C170.928 29.9552 171.086 30.1134 171.402 30.1134H173.775C174.092 30.1134 174.25 29.9552 174.25 29.6388V24.8926H178.838C179.471 24.8926 179.945 25.0508 180.262 25.0508C180.578 25.209 180.895 25.3672 181.211 25.8418L184.059 29.797C184.217 29.9552 184.217 29.9552 184.375 30.1134C184.533 30.1134 184.692 30.1134 184.85 30.1134H187.539C187.698 30.1134 187.856 30.1134 187.856 29.9552C187.856 29.797 187.856 29.6388 187.856 29.4806L184.533 24.8926C184.059 24.2598 183.426 23.7852 182.793 23.3105C183.268 22.9941 183.742 22.5195 184.217 21.7285L187.223 17.4569C187.381 17.2987 187.381 17.1405 187.381 16.9823C187.381 16.8241 187.223 16.8241 187.065 16.8241H184.375C184.217 16.8241 184.059 16.8241 183.901 16.9823C183.742 16.9823 183.742 17.1405 183.584 17.2987L180.895 21.0956C180.736 21.2539 180.578 21.4121 180.42 21.5703C180.262 21.7285 180.104 21.7285 179.945 21.8867C179.787 21.8867 179.629 22.0449 179.313 22.0449C179.154 22.0449 178.838 22.0449 178.522 22.0449H174.092V12.7107C174.092 12.3943 173.934 12.2361 173.617 12.2361H171.402V12.3943Z" fill="#1C63B7"/>
<path d="M189.913 17.1404C189.596 17.1404 189.438 17.2986 189.438 17.615V19.6717C189.438 19.9881 189.596 20.1463 189.913 20.1463H199.88C200.354 20.1463 200.829 20.1463 201.145 20.3045C201.462 20.4627 201.778 20.4627 201.936 20.6209C202.095 20.7791 202.253 20.9373 202.411 21.2537C202.569 21.5702 202.569 21.8866 202.569 22.203V22.5194H192.919C192.286 22.5194 191.653 22.5194 191.178 22.6776C190.704 22.8358 190.387 22.994 190.071 23.3104C189.755 23.6268 189.596 23.9433 189.438 24.2597C189.28 24.5761 189.28 25.0507 189.28 25.5253V26.6328C189.28 27.2656 189.28 27.7402 189.438 28.2148C189.596 28.6895 189.755 29.0059 190.071 29.3223C190.387 29.6387 190.704 29.7969 191.178 29.9551C191.653 30.1133 192.286 30.1133 192.919 30.1133H204.151C204.468 30.1133 204.784 30.1133 204.942 30.1133C205.101 30.1133 205.417 29.9551 205.417 29.7969C205.575 29.6387 205.575 29.4805 205.733 29.1641C205.733 28.8477 205.892 28.5312 205.892 28.2148V21.8866C205.892 21.0955 205.733 20.3045 205.575 19.6717C205.417 19.0389 205.101 18.5642 204.626 18.2478C204.151 17.9314 203.677 17.615 202.886 17.4568C202.095 17.2986 201.304 17.1404 200.196 17.1404H189.913ZM193.71 27.582C193.235 27.582 192.919 27.4238 192.602 27.2656C192.444 27.1074 192.286 26.791 192.286 26.3164V25.8417C192.286 25.5253 192.444 25.2089 192.602 25.0507C192.761 24.8925 193.077 24.7343 193.71 24.7343H202.411V26.791C202.411 27.1074 202.411 27.2656 202.253 27.4238C202.095 27.582 201.936 27.582 201.778 27.582H193.71Z" fill="#1C63B7"/>
<path d="M213.802 17.1406C212.694 17.1406 211.903 17.2988 211.112 17.457C210.321 17.6153 209.847 17.9317 209.372 18.2481C208.897 18.5645 208.581 19.1973 208.423 19.6719C208.265 20.3048 208.106 21.0958 208.106 21.8868V29.6389C208.106 29.9554 208.265 30.1136 208.581 30.1136H210.954C211.271 30.1136 211.429 29.9554 211.429 29.6389V22.5196C211.429 22.045 211.429 21.5704 211.587 21.254C211.745 20.9376 211.745 20.6212 212.062 20.463C212.22 20.3048 212.536 20.1466 212.853 19.9883C213.169 19.8301 213.644 19.8301 214.118 19.8301H220.447C220.763 19.8301 220.921 19.6719 220.921 19.3555V17.2988C220.921 16.9824 220.763 16.8242 220.447 16.8242H213.802V17.1406Z" fill="#1C63B7"/>
<path d="M246.867 17.1404C245.759 17.1404 244.968 17.2986 244.177 17.4568C243.386 17.615 242.912 17.9314 242.437 18.2478C241.962 18.5642 241.646 19.1971 241.488 19.6717C241.33 20.3045 241.171 21.0955 241.171 21.8866V29.6387C241.171 29.9551 241.33 30.1133 241.646 30.1133H244.019C244.336 30.1133 244.494 29.9551 244.494 29.6387V22.6776C244.494 22.203 244.494 21.7284 244.652 21.412C244.81 21.0955 244.81 20.7791 245.127 20.6209C245.285 20.4627 245.601 20.3045 245.918 20.1463C246.234 19.9881 246.709 19.9881 247.183 19.9881H251.138V29.4805C251.138 29.7969 251.297 29.9551 251.613 29.9551H253.986C254.303 29.9551 254.461 29.7969 254.461 29.4805V19.9881H258.574C259.049 19.9881 259.523 19.9881 259.84 20.1463C260.156 20.3045 260.314 20.3045 260.631 20.6209C260.789 20.7791 260.947 21.0955 260.947 21.412C260.947 21.7284 261.105 22.203 261.105 22.6776V29.6387C261.105 29.9551 261.264 30.1133 261.58 30.1133H263.953C264.27 30.1133 264.428 29.9551 264.428 29.6387V21.8866C264.428 21.0955 264.27 20.3045 264.111 19.6717C263.953 19.0389 263.637 18.5642 263.162 18.2478C262.688 17.9314 262.055 17.615 261.422 17.4568C260.789 17.2986 259.84 17.1404 258.732 17.1404H246.867Z" fill="#1C63B7"/>
<path d="M222.82 17.1404C222.503 17.1404 222.345 17.2986 222.345 17.615V19.6717C222.345 19.9881 222.503 20.1463 222.82 20.1463H232.787C233.261 20.1463 233.736 20.1463 234.052 20.3045C234.369 20.4627 234.685 20.4627 234.843 20.6209C235.002 20.7791 235.16 20.9373 235.318 21.2537C235.476 21.5702 235.476 21.8866 235.476 22.203V22.5194H225.826C225.193 22.5194 224.56 22.5194 224.085 22.6776C223.611 22.8358 223.294 22.994 222.978 23.3104C222.662 23.6268 222.503 23.9433 222.345 24.2597C222.187 24.5761 222.187 25.0507 222.187 25.5253V26.6328C222.187 27.2656 222.187 27.7402 222.345 28.2148C222.503 28.6895 222.662 29.0059 222.978 29.3223C223.294 29.6387 223.611 29.7969 224.085 29.9551C224.56 30.1133 225.193 30.1133 225.826 30.1133H237.058C237.375 30.1133 237.691 30.1133 237.849 30.1133C238.008 30.1133 238.324 29.9551 238.324 29.7969C238.482 29.6387 238.482 29.4805 238.64 29.1641C238.64 28.8477 238.799 28.5312 238.799 28.2148V21.8866C238.799 21.0955 238.64 20.3045 238.482 19.6717C238.324 19.0389 238.008 18.5642 237.533 18.2478C237.058 17.9314 236.584 17.615 235.793 17.4568C235.002 17.2986 234.211 17.1404 233.103 17.1404H222.82ZM226.617 27.582C226.142 27.582 225.826 27.4238 225.509 27.2656C225.351 27.1074 225.193 26.791 225.193 26.3164V25.8417C225.193 25.5253 225.351 25.2089 225.509 25.0507C225.667 24.8925 225.984 24.7343 226.617 24.7343H235.318V26.791C235.318 27.1074 235.318 27.2656 235.16 27.4238C235.002 27.582 234.843 27.582 234.685 27.582H226.617Z" fill="#1C63B7"/>
<path d="M13.4814 32.1278C13.4814 32.1278 24.3462 48.8743 43.0533 38.7447C43.0533 38.7447 58.8195 45.2799 62.904 33.5982C62.904 33.5982 66.4984 22.3249 54.2448 20.4461C54.2448 20.4461 54.9801 12.277 45.1772 10.2348C45.1772 10.2348 44.1153 3.78126 33.4955 1.90238C33.4955 1.90238 21.0786 0.758718 17.5659 8.92774C17.5659 8.92774 5.88423 4.59816 0.901131 14.8094C0.982821 14.7277 -5.14395 29.5954 13.4814 32.1278Z" fill="#00ADEF"/>
<path d="M51.7125 10.7248C51.7125 10.7248 55.3885 17.6685 63.3125 14.7276C63.3125 14.7276 69.3576 17.9952 71.4815 13.7473C71.4815 13.7473 73.4421 10.153 68.5407 8.27409C68.5407 8.27409 69.1942 5.16986 65.3547 3.94451C65.3547 3.94451 65.1914 1.41211 61.0252 0.186757C61.0252 0.186757 56.1237 -0.875216 54.4082 2.06563C54.4082 2.06563 50.4871 -0.956906 47.4646 3.45437C47.3829 3.45437 44.3603 8.84592 51.7125 10.7248Z" fill="#00ADEF"/>
<path d="M45.7491 33.5164L35.8646 5.25158C35.8646 5.25158 35.6195 3.69946 33.0055 3.69946C30.8815 3.69946 30.3914 5.25158 30.3914 5.25158L17.2392 27.7164C17.2392 27.7164 16.259 29.677 17.0759 31.2291L19.2815 34.415C20.5885 37.1108 23.4477 36.2122 23.4477 36.2122L37.4167 31.7192V31.2291H22.4674L32.5153 12.6854L40.1125 35.1502C40.1125 35.1502 40.766 37.5192 43.6252 36.8657C46.4843 36.2122 45.7491 33.5164 45.7491 33.5164Z" fill="#F8F8F8"/>
<path d="M54.2448 23.3873C56.7772 23.3873 59.0645 24.2042 60.78 25.5929C59.2279 23.3873 56.6955 21.9985 53.8364 21.9985C50.242 21.9985 47.1378 24.2859 45.9124 27.5535C47.6279 25.1028 50.7321 23.3873 54.2448 23.3873Z" fill="white"/>
<path d="M13.6448 10.8882C15.5236 10.8882 17.3208 11.215 18.9546 11.8685C17.0758 10.4797 14.7884 9.66284 12.256 9.66284C7.02786 9.66284 2.69828 13.2572 1.47293 18.0769C3.27012 13.9107 8.00815 10.8882 13.6448 10.8882Z" fill="white"/>
<path d="M60.0448 1.57564C61.0251 1.57564 61.9237 1.73902 62.7406 2.06578C61.7603 1.33057 60.6167 0.922119 59.3096 0.922119C56.6139 0.922119 54.4082 2.80099 53.7547 5.2517C54.735 3.12775 57.1857 1.57564 60.0448 1.57564Z" fill="white"/>
<path d="M63.0673 12.1139C62.8223 11.6237 62.7406 11.0519 62.6589 10.5618C62.4955 11.2153 62.5772 11.9505 62.9039 12.604C63.5575 13.9928 65.0279 14.728 66.4983 14.4829C65.1096 14.4829 63.7208 13.5843 63.0673 12.1139Z" fill="white"/>
</svg>
