<svg width="211" height="56" viewBox="0 0 211 56" fill="none" xmlns="http://www.w3.org/2000/svg">
<g clip-path="url(#clip0)">
<path d="M18.2157 42.8372C18.2157 42.8372 32.896 65.1659 58.1726 51.6597C58.1726 51.6597 79.4755 60.3734 84.9944 44.7977C84.9944 44.7977 89.851 29.7666 73.2943 27.2615C73.2943 27.2615 74.2878 16.3694 61.0423 13.6464C61.0423 13.6464 59.6075 5.04168 45.2583 2.5365C45.2583 2.5365 28.4809 1.01161 23.7346 11.9037C23.7346 11.9037 7.95063 6.13088 1.21759 19.7459C1.32797 19.637 -6.95038 39.4606 18.2157 42.8372Z" fill="#00ADEF"/>
<path d="M69.8727 14.2998C69.8727 14.2998 74.8396 23.5581 85.5463 19.6369C85.5463 19.6369 93.7143 23.9937 96.5841 18.3298C96.5841 18.3298 99.2332 13.5374 92.6106 11.0321C92.6106 11.0321 93.4935 6.89317 88.3057 5.25936C88.3057 5.25936 88.0851 1.88282 82.4558 0.24901C82.4558 0.24901 75.833 -1.16696 73.5151 2.75418C73.5151 2.75418 68.217 -1.27588 64.133 4.60584C64.0226 4.60584 59.9386 11.7946 69.8727 14.2998Z" fill="#00ADEF"/>
<path d="M61.815 44.6886L48.4594 7.00212C48.4594 7.00212 48.1282 4.93262 44.5962 4.93262C41.7263 4.93262 41.0641 7.00212 41.0641 7.00212L23.2932 36.9553C23.2932 36.9553 21.9687 39.5694 23.0725 41.6389L26.0527 45.8868C27.8187 49.4812 31.6819 48.2831 31.6819 48.2831L50.5565 42.2924V41.6389H30.3574L43.9339 16.9139L54.199 46.8671C54.199 46.8671 55.082 50.0257 58.9453 49.1544C62.8084 48.2831 61.815 44.6886 61.815 44.6886Z" fill="#F8F8F8"/>
<path d="M73.2943 31.1832C76.716 31.1832 79.8065 32.2724 82.1245 34.124C80.0273 31.1832 76.6056 29.3314 72.7424 29.3314C67.8858 29.3314 63.6915 32.3813 62.0357 36.7381C64.3537 33.4705 68.548 31.1832 73.2943 31.1832Z" fill="white"/>
<path d="M18.4365 14.5176C20.9751 14.5176 23.4035 14.9534 25.611 15.8247C23.0724 13.973 19.9817 12.8838 16.56 12.8838C9.49589 12.8838 3.64587 17.6763 1.9902 24.1026C4.41852 18.5477 10.8204 14.5176 18.4365 14.5176Z" fill="white"/>
<path d="M81.1311 2.10086C82.4556 2.10086 83.6698 2.3187 84.7736 2.75438C83.449 1.77409 81.9038 1.22949 80.1377 1.22949C76.4953 1.22949 73.515 3.73466 72.632 7.00228C73.9566 4.17034 77.2679 2.10086 81.1311 2.10086Z" fill="white"/>
<path d="M85.215 16.1519C84.884 15.4983 84.7736 14.7359 84.6632 14.0824C84.4424 14.9538 84.5528 15.934 84.9942 16.8054C85.8774 18.6571 87.8641 19.6374 89.8509 19.3106C87.9745 19.3106 86.098 18.1124 85.215 16.1519Z" fill="white"/>
<path d="M102.516 27.7946C102.214 27.7946 101.912 27.8939 101.711 27.9932C101.51 28.1918 101.208 28.4897 101.007 28.8869L96.0755 37.8245C95.9748 37.9238 95.9748 38.0231 96.0755 38.1224C96.0755 38.2217 96.1761 38.2217 96.3774 38.2217H98.39C98.5913 38.2217 98.692 38.1224 98.692 38.0231L99.6983 36.1363H106.743L107.849 38.0231C107.951 38.1224 108.051 38.2217 108.152 38.2217H110.064C110.164 38.2217 110.265 38.2217 110.265 38.1224C110.265 38.0231 110.265 38.0231 110.265 37.8245L105.233 28.8869C104.931 28.4897 104.73 28.0925 104.428 27.9932C104.126 27.7946 103.824 27.7946 103.422 27.7946H102.516ZM102.818 29.9793C102.818 29.88 102.919 29.88 103.019 29.88H103.12C103.22 29.88 103.22 29.88 103.321 29.9793L105.736 34.3488H100.503L102.818 29.9793Z" fill="#1C63B7"/>
<path d="M109.057 30.0784C108.957 30.0784 108.856 30.0784 108.856 30.1777C108.856 30.277 108.856 30.3763 108.856 30.4756L112.982 37.6257C113.083 37.9236 113.284 38.0229 113.485 38.1222C113.686 38.2215 113.888 38.2215 114.291 38.2215H115.498C115.8 38.2215 116.102 38.2215 116.303 38.1222C116.504 38.0229 116.605 37.8243 116.806 37.6257L120.932 30.4756C121.033 30.3763 121.033 30.277 120.932 30.1777C120.932 30.0784 120.832 30.0784 120.731 30.0784H119.02C118.92 30.0784 118.819 30.0784 118.819 30.1777C118.719 30.1777 118.719 30.277 118.719 30.277L115.095 36.434C115.095 36.5333 114.995 36.5333 114.894 36.5333H114.794C114.693 36.5333 114.693 36.5333 114.592 36.434L111.07 30.277C110.97 30.1777 110.869 30.0784 110.667 30.0784H109.057Z" fill="#1C63B7"/>
<path d="M122.341 30.0785C122.14 30.0785 122.039 30.1778 122.039 30.3764V37.9237C122.039 38.1223 122.14 38.2216 122.341 38.2216H123.851C124.052 38.2216 124.153 38.1223 124.153 37.9237V30.3764C124.153 30.1778 124.052 30.0785 123.851 30.0785H122.341ZM122.341 27C122.14 27 122.039 27.0993 122.039 27.2979V28.6882C122.039 28.8868 122.14 28.9861 122.341 28.9861H123.851C124.052 28.9861 124.153 28.8868 124.153 28.6882V27.2979C124.153 27.0993 124.052 27 123.851 27H122.341Z" fill="#1C63B7"/>
<path d="M128.278 30.0782C127.876 30.0782 127.473 30.1775 127.172 30.1775C126.869 30.2768 126.668 30.3762 126.467 30.5748C126.266 30.7734 126.165 30.972 126.065 31.2699C125.863 31.4685 125.863 31.7664 125.863 32.0644V32.7595C125.863 33.4547 126.065 33.9512 126.366 34.2491C126.769 34.547 127.373 34.7456 128.178 34.7456H133.209C133.512 34.7456 133.713 34.845 133.914 34.9443C134.015 35.0436 134.115 35.2422 134.115 35.4408V35.838C134.115 36.1359 134.015 36.2352 133.914 36.4339C133.813 36.5332 133.612 36.6325 133.209 36.6325H126.065C125.863 36.6325 125.763 36.7318 125.763 36.9304V38.1221C125.763 38.3207 125.863 38.42 126.065 38.42H133.914C134.317 38.42 134.719 38.42 135.021 38.3207C135.323 38.2214 135.524 38.1221 135.725 37.9235C135.927 37.7248 136.027 37.5262 136.128 37.2283C136.228 36.9304 136.228 36.6325 136.228 36.3346V35.5401C136.228 34.9443 136.027 34.4477 135.725 34.0505C135.323 33.6533 134.82 33.554 133.914 33.554H128.782C128.48 33.554 128.278 33.4547 128.077 33.3554C127.976 33.256 127.876 33.0574 127.876 32.8588V32.4616C127.876 32.263 127.976 32.0644 128.077 31.9651C128.178 31.8658 128.379 31.7665 128.782 31.7665H135.625C135.826 31.7665 135.927 31.6671 135.927 31.4685V30.2769C135.927 30.0782 135.826 29.9789 135.625 29.9789H128.278V30.0782Z" fill="#1C63B7"/>
<path d="M138.14 27.0993C137.939 27.0993 137.839 27.1986 137.839 27.3972V37.9237C137.839 38.1223 137.939 38.2216 138.14 38.2216H139.651C139.852 38.2216 139.952 38.1223 139.952 37.9237V31.9653H145.487C145.789 31.9653 146.091 31.9653 146.292 32.0646C146.494 32.1639 146.695 32.1639 146.795 32.3625C146.896 32.4618 146.997 32.6605 146.997 32.8591C146.997 33.0577 147.097 33.3556 147.097 33.6535V38.023C147.097 38.2216 147.198 38.3209 147.399 38.3209H148.909C149.11 38.3209 149.21 38.2216 149.21 38.023V33.157C149.21 32.6604 149.11 32.1639 149.009 31.7667C148.909 31.3695 148.707 31.0716 148.406 30.8729C148.104 30.6743 147.802 30.4757 147.298 30.3764C146.795 30.2771 146.292 30.1778 145.588 30.1778H139.952V27.4965C139.952 27.2979 139.852 27.1986 139.651 27.1986H138.14V27.0993Z" fill="#1C63B7"/>
<path d="M151.324 27.0993C151.123 27.0993 151.022 27.1986 151.022 27.3972V37.9237C151.022 38.1223 151.123 38.2216 151.324 38.2216H152.833C153.035 38.2216 153.135 38.1223 153.135 37.9237V34.9445H156.054C156.456 34.9445 156.758 35.0438 156.959 35.0438C157.16 35.1431 157.362 35.2424 157.563 35.5403L159.375 38.023C159.475 38.1223 159.475 38.1223 159.576 38.2216C159.676 38.2216 159.777 38.2216 159.878 38.2216H161.588C161.689 38.2216 161.79 38.2216 161.79 38.1223C161.79 38.023 161.79 37.9237 161.79 37.8244L159.676 34.9445C159.375 34.5473 158.972 34.2494 158.569 33.9514C158.872 33.7528 159.173 33.4549 159.475 32.9584L161.387 30.2771C161.488 30.1778 161.488 30.0785 161.488 29.9792C161.488 29.8799 161.387 29.8799 161.287 29.8799H159.576C159.475 29.8799 159.375 29.8799 159.274 29.9792C159.173 29.9792 159.173 30.0785 159.073 30.1778L157.362 32.5611C157.261 32.6605 157.16 32.7598 157.06 32.8591C156.959 32.9584 156.859 32.9584 156.758 33.0577C156.657 33.0577 156.557 33.157 156.356 33.157C156.255 33.157 156.054 33.157 155.853 33.157H153.035V27.2979C153.035 27.0993 152.934 27 152.733 27H151.324V27.0993Z" fill="#1C63B7"/>
<path d="M163.098 30.0784C162.897 30.0784 162.796 30.1777 162.796 30.3763V31.6673C162.796 31.8659 162.897 31.9652 163.098 31.9652H169.438C169.74 31.9652 170.042 31.9652 170.243 32.0645C170.445 32.1638 170.646 32.1638 170.746 32.2631C170.847 32.3624 170.948 32.4617 171.048 32.6603C171.149 32.859 171.149 33.0576 171.149 33.2562V33.4548H165.01C164.608 33.4548 164.205 33.4548 163.903 33.5541C163.602 33.6534 163.4 33.7527 163.199 33.9513C162.998 34.1499 162.897 34.3486 162.796 34.5472C162.696 34.7458 162.696 35.0437 162.696 35.3416V36.0368C162.696 36.434 162.696 36.7319 162.796 37.0298C162.897 37.3278 162.998 37.5264 163.199 37.725C163.4 37.9236 163.602 38.0229 163.903 38.1222C164.205 38.2215 164.608 38.2215 165.01 38.2215H172.155C172.357 38.2215 172.558 38.2215 172.658 38.2215C172.759 38.2215 172.96 38.1222 172.96 38.0229C173.061 37.9236 173.061 37.8243 173.161 37.6257C173.161 37.4271 173.263 37.2284 173.263 37.0298V33.0576C173.263 32.561 173.161 32.0645 173.061 31.6673C172.96 31.2701 172.759 30.9721 172.457 30.7735C172.155 30.5749 171.854 30.3763 171.35 30.277C170.847 30.1777 170.344 30.0784 169.639 30.0784H163.098ZM165.514 36.6326C165.211 36.6326 165.01 36.5333 164.809 36.434C164.708 36.3347 164.608 36.1361 164.608 35.8382V35.5402C164.608 35.3416 164.708 35.143 164.809 35.0437C164.91 34.9444 165.111 34.8451 165.514 34.8451H171.048V36.1361C171.048 36.3347 171.048 36.434 170.948 36.5333C170.847 36.6326 170.746 36.6326 170.646 36.6326H165.514Z" fill="#1C63B7"/>
<path d="M178.294 30.0786C177.589 30.0786 177.086 30.1779 176.583 30.2772C176.08 30.3765 175.778 30.5752 175.476 30.7738C175.174 30.9724 174.973 31.3696 174.873 31.6675C174.772 32.0647 174.671 32.5613 174.671 33.0578V37.9238C174.671 38.1224 174.772 38.2217 174.973 38.2217H176.482C176.684 38.2217 176.785 38.1224 176.785 37.9238V33.455C176.785 33.1571 176.785 32.8592 176.885 32.6606C176.986 32.462 176.986 32.2633 177.187 32.164C177.288 32.0647 177.489 31.9654 177.69 31.8661C177.891 31.7668 178.194 31.7668 178.495 31.7668H182.521C182.722 31.7668 182.822 31.6675 182.822 31.4689V30.1779C182.822 29.9793 182.722 29.88 182.521 29.88H178.294V30.0786Z" fill="#1C63B7"/>
<path d="M199.327 30.0784C198.622 30.0784 198.119 30.1777 197.616 30.277C197.112 30.3763 196.811 30.5749 196.509 30.7735C196.207 30.9721 196.006 31.3694 195.905 31.6673C195.805 32.0645 195.703 32.561 195.703 33.0576V37.9236C195.703 38.1222 195.805 38.2215 196.006 38.2215H197.515C197.717 38.2215 197.817 38.1222 197.817 37.9236V33.5541C197.817 33.2562 197.817 32.9583 197.918 32.7597C198.018 32.561 198.018 32.3624 198.22 32.2631C198.32 32.1638 198.521 32.0645 198.723 31.9652C198.924 31.8659 199.226 31.8659 199.528 31.8659H202.043V37.8243C202.043 38.0229 202.145 38.1222 202.346 38.1222H203.855C204.057 38.1222 204.157 38.0229 204.157 37.8243V31.8659H206.773C207.076 31.8659 207.377 31.8659 207.579 31.9652C207.78 32.0645 207.88 32.0645 208.082 32.2631C208.182 32.3624 208.283 32.561 208.283 32.7597C208.283 32.9583 208.383 33.2562 208.383 33.5541V37.9236C208.383 38.1222 208.485 38.2215 208.686 38.2215H210.195C210.397 38.2215 210.497 38.1222 210.497 37.9236V33.0576C210.497 32.561 210.397 32.0645 210.296 31.6673C210.195 31.2701 209.994 30.9721 209.692 30.7735C209.39 30.5749 208.988 30.3763 208.585 30.277C208.182 30.1777 207.579 30.0784 206.874 30.0784H199.327Z" fill="#1C63B7"/>
<path d="M184.03 30.0784C183.829 30.0784 183.728 30.1777 183.728 30.3763V31.6673C183.728 31.8659 183.829 31.9652 184.03 31.9652H190.37C190.672 31.9652 190.974 31.9652 191.175 32.0645C191.377 32.1638 191.578 32.1638 191.678 32.2631C191.779 32.3624 191.88 32.4617 191.98 32.6603C192.081 32.859 192.081 33.0576 192.081 33.2562V33.4548H185.943C185.54 33.4548 185.137 33.4548 184.835 33.5541C184.534 33.6534 184.332 33.7527 184.131 33.9513C183.93 34.1499 183.829 34.3486 183.728 34.5472C183.628 34.7458 183.628 35.0437 183.628 35.3416V36.0368C183.628 36.434 183.628 36.7319 183.728 37.0298C183.829 37.3278 183.93 37.5264 184.131 37.725C184.332 37.9236 184.534 38.0229 184.835 38.1222C185.137 38.2215 185.54 38.2215 185.943 38.2215H193.087C193.289 38.2215 193.49 38.2215 193.59 38.2215C193.691 38.2215 193.892 38.1222 193.892 38.0229C193.993 37.9236 193.993 37.8243 194.093 37.6257C194.093 37.4271 194.195 37.2284 194.195 37.0298V33.0576C194.195 32.561 194.093 32.0645 193.993 31.6673C193.892 31.2701 193.691 30.9721 193.389 30.7735C193.087 30.5749 192.786 30.3763 192.283 30.277C191.779 30.1777 191.276 30.0784 190.571 30.0784H184.03ZM186.446 36.6326C186.144 36.6326 185.943 36.5333 185.741 36.434C185.64 36.3347 185.54 36.1361 185.54 35.8382V35.5402C185.54 35.3416 185.64 35.143 185.741 35.0437C185.841 34.9444 186.043 34.8451 186.446 34.8451H191.98V36.1361C191.98 36.3347 191.98 36.434 191.88 36.5333C191.779 36.6326 191.678 36.6326 191.578 36.6326H186.446Z" fill="#1C63B7"/>
</g>
<defs>
<clipPath id="clip0">
<rect width="210.545" height="56" fill="white"/>
</clipPath>
</defs>
</svg>
