<svg width="24" height="24" viewBox="0 0 24 24" fill="none" xmlns="http://www.w3.org/2000/svg">
<path d="M11.6223 23.0223C5.31224 23.0223 0.178886 17.8957 0.17857 11.5937C0.179203 5.29188 5.31224 0.16581 11.6223 0.165176C17.9325 0.16581 23.0655 5.29188 23.0657 11.5937C23.0655 17.8957 17.9325 23.0223 11.6223 23.0223Z" fill="#666666"/>
<path d="M11.006 8.39891C9.45757 5.66016 7.80255 3.35065 7.46914 2.8923C4.80694 4.16266 2.81312 6.61356 2.17383 9.56299C2.2004 9.56299 2.23203 9.56299 2.26841 9.56299C3.15919 9.56299 6.85009 9.49151 11.006 8.39891Z" fill="#150D1C"/>
<path d="M17.9913 4.35215C16.2889 2.85971 14.0601 1.95312 11.6222 1.95312C10.8724 1.95312 10.143 2.03948 9.44168 2.20271C9.83456 2.73351 11.4887 5.01801 12.9982 7.77986C16.2608 6.54619 17.7222 4.72035 17.9913 4.35215Z" fill="#150D1C"/>
<path d="M14.4177 10.6801C14.4835 10.8345 14.5474 10.9885 14.6104 11.1416C15.3585 11.0496 16.105 11.0138 16.8143 11.0138C19.013 11.0138 20.8531 11.358 21.2874 11.4456C21.2504 9.22088 20.4565 7.17709 19.1513 5.55972C18.8137 5.99719 17.1809 7.93153 13.7975 9.32527C14.0147 9.77128 14.2232 10.2243 14.4177 10.6801Z" fill="#150D1C"/>
<path d="M12.285 11.6393C12.3913 11.6051 12.4989 11.5738 12.6064 11.5423C12.3761 11.0257 12.1281 10.5085 11.8675 9.99888C7.57653 11.2727 3.41176 11.3724 2.21257 11.3724C2.10185 11.3724 2.01739 11.3717 1.95919 11.3705C1.95729 11.4502 1.95507 11.5299 1.95507 11.609C1.95539 14.0611 2.87559 16.3014 4.38858 18.0061C4.79696 17.3313 7.45347 13.1998 12.285 11.6393Z" fill="#150D1C"/>
<path d="M15.2447 12.7819C16.4471 16.0984 16.968 18.8182 17.0971 19.5615C19.2139 18.1039 20.7225 15.8254 21.1587 13.1904C20.7918 13.0784 19.2111 12.6361 17.1911 12.6361C16.5758 12.6361 15.9194 12.6783 15.2447 12.7819Z" fill="#150D1C"/>
<path d="M13.3017 13.2599C8.00581 15.1029 6.00157 18.7121 5.72573 19.2541C7.35924 20.5127 9.40398 21.2633 11.6227 21.2633C12.9459 21.2633 14.2077 20.9963 15.3573 20.5136C15.2023 19.6143 14.6395 16.7136 13.3125 13.2561C13.3087 13.2574 13.3053 13.2586 13.3017 13.2599Z" fill="#150D1C"/>
</svg>
