<svg width="24" height="24" viewBox="0 0 24 24" fill="none" xmlns="http://www.w3.org/2000/svg">
<path d="M19.9935 23.0223H3.00429C1.39006 23.0223 0.0703125 21.8275 0.0703125 20.089V3.09883C0.0703125 1.35959 1.39006 0.165176 3.00429 0.165176H19.9935C21.6074 0.165176 22.9274 1.35959 22.9274 3.09883V20.089C22.9274 21.8275 21.6071 23.0223 19.9935 23.0223Z" fill="#666666"/>
<path d="M11.5203 15.9919C14.0553 15.9919 16.1104 14.0005 16.1104 11.5439C16.1104 9.08738 14.0553 7.09598 11.5203 7.09598C8.9853 7.09598 6.93024 9.08738 6.93024 11.5439C6.93024 14.0005 8.9853 15.9919 11.5203 15.9919Z" fill="#150D1C"/>
<path d="M18.6253 11.792C18.6253 15.5938 15.4445 18.6753 11.5207 18.6753C7.59699 18.6753 4.41613 15.5938 4.41613 11.792C4.41613 11.1107 4.51894 10.4526 4.70934 9.83092H2.60992V19.4862C2.60992 19.9862 3.01863 20.3946 3.51843 20.3946H19.4351C19.9352 20.3946 20.3442 19.9862 20.3442 19.4862V9.83092H18.332C18.5222 10.4526 18.6253 11.1107 18.6253 11.792Z" fill="#150D1C"/>
<path d="M16.7214 7.22571H19.3047C19.8707 7.22571 20.3334 6.76305 20.3334 6.19695V3.73388C20.3334 3.16745 19.8707 2.7048 19.3047 2.7048H16.7214C16.1549 2.7048 15.6922 3.16745 15.6922 3.73388V6.19695C15.6919 6.76273 16.1549 7.22571 16.7214 7.22571Z" fill="#150D1C"/>
</svg>
