<svg width="24" height="24" viewBox="0 0 24 24" fill="none" xmlns="http://www.w3.org/2000/svg">
<path d="M6.15617 23.0223H1.41088V7.75452H6.15617V23.0223ZM3.78456 5.6675C2.26359 5.6675 1.03236 4.43455 1.03236 2.91564C1.03271 1.39812 2.26359 0.165176 3.78456 0.165176C5.30139 0.165176 6.53434 1.39812 6.53434 2.91564C6.53434 4.4349 5.30105 5.6675 3.78456 5.6675ZM23.9289 23.0223H19.1874V15.5974C19.1874 13.8267 19.1546 11.5494 16.7208 11.5494C14.2528 11.5494 13.8733 13.4778 13.8733 15.4693V23.0219H9.13216V7.75452H13.6833V9.84086H13.7472C14.381 8.64038 15.9282 7.37497 18.2369 7.37497C23.0419 7.37497 23.9289 10.5371 23.9289 14.648V23.0223Z" fill="#666666"/>
</svg>
