<svg width="31" height="24" viewBox="0 0 31 24" fill="none" xmlns="http://www.w3.org/2000/svg">
<path fill-rule="evenodd" clip-rule="evenodd" d="M29.4291 22.9194V22.4386L27.195 20.2455C26.9987 20.0962 26.9005 19.8486 26.9414 19.6052V3.49673C26.9005 3.25329 26.9987 3.00575 27.195 2.8564L29.4822 0.663324V0.182564H21.5672L15.9249 14.2575L9.50518 0.182564H1.20134V0.663324L3.87723 3.88543C4.13909 4.1207 4.27411 4.46848 4.23729 4.82036V17.4797C4.31503 17.9358 4.17182 18.4023 3.85064 18.7358L0.841286 22.3854V22.8662H9.3722V22.3854L6.36286 18.7358C6.03963 18.4023 5.88619 17.94 5.9496 17.4797V6.53063L13.4372 22.8662H14.3067L20.7365 6.53063V19.552C20.7365 19.8998 20.7365 19.9653 20.5094 20.1923L18.1977 22.4386V22.9194H29.4291Z" fill="#666666"/>
</svg>
