<svg width="24" height="24" viewBox="0 0 24 24" fill="none" xmlns="http://www.w3.org/2000/svg">
<path fill-rule="evenodd" clip-rule="evenodd" d="M18.1893 4.75H15C14.5858 4.75 14.25 4.41421 14.25 4C14.25 3.58579 14.5858 3.25 15 3.25H20C20.4142 3.25 20.75 3.58579 20.75 4V9C20.75 9.41421 20.4142 9.75 20 9.75C19.5858 9.75 19.25 9.41421 19.25 9V5.81066L10.5303 14.5303C10.2374 14.8232 9.76256 14.8232 9.46967 14.5303C9.17678 14.2374 9.17678 13.7626 9.46967 13.4697L18.1893 4.75ZM11 5V5.0001C11.2623 4.99639 11.5062 5.13419 11.6384 5.36073C11.7707 5.58727 11.7707 5.86746 11.6384 6.094C11.5062 6.32054 11.2623 6.45834 11 6.45463C9.18559 6.45463 7.83468 6.45951 6.88349 6.56685C5.93229 6.67419 5.44115 6.87394 5.15622 7.15917C4.8713 7.44441 4.67209 7.93553 4.56532 8.88644C4.45855 9.83734 4.45453 11.1875 4.45453 13C4.45453 14.812 4.4608 16.1617 4.56958 17.1122C4.67836 18.0627 4.87911 18.5547 5.16617 18.8409C5.45322 19.1271 5.94507 19.3259 6.89489 19.4332C7.8447 19.5406 9.19269 19.5455 11 19.5455C12.807 19.5455 14.1554 19.54 15.105 19.4318C16.0547 19.3236 16.5463 19.1238 16.8337 18.8367C17.1212 18.5495 17.3216 18.0578 17.4303 17.1079C17.5391 16.1581 17.5454 14.809 17.5454 13C17.5417 12.7378 17.6795 12.4938 17.906 12.3616C18.1326 12.2294 18.4128 12.2294 18.6393 12.3616C18.8658 12.4938 19.0036 12.7378 18.9999 13C18.9999 14.8104 19 16.1803 18.8749 17.2727C18.7498 18.3652 18.489 19.2389 17.8621 19.8651C17.2352 20.4913 16.3602 20.752 15.2684 20.8764C14.1765 21.0008 12.8082 21 11 21C9.19199 21 7.82327 21.0026 6.73156 20.8793C5.63986 20.7559 4.76655 20.4963 4.13921 19.8708C3.51187 19.2452 3.24866 18.3713 3.12358 17.2784C2.9985 16.1855 3 14.8135 3 13C3 11.187 2.99808 9.81548 3.12074 8.72305C3.24336 7.63055 3.50052 6.7573 4.12641 6.1307C4.7523 5.5041 5.6272 5.24409 6.72014 5.12075C7.81316 4.9974 9.18486 5 11 5Z" fill="white"/>
</svg>
